# xmcd
#
# Track frame offsets:
#	150
#	16529
#	41123
#	64250
#	82612
#	103539
#	122385
#	141282
#	158652
#	178501
#	197543
#	215672
#	234871
#	253770
#	271503
# Disc length: 3876 seconds
# Revision: 1
# Processed by: cddbd v1.5.1PL0 Copyright (c) Steve Scherf et al.
#
# Submitted via: libkcddb 0.10
#
DISCID=b60f220f
DTITLE=bitch - ksvm
DYEAR=1900
DGENRE=
TTITLE0=This Is How We Do (Fresh '83)
TTITLE1=Soldier (Feat. T.I. and Lil Wayn
TTITLE2=Dangerously In Love
TTITLE3=Put Your Money
TTITLE4=Back
TTITLE5=New York
TTITLE6=Femme Like You
TTITLE7=Lil John
TTITLE8=Lovers and Friends Ft Usher Lu
TTITLE9=Because of You
TTITLE10=Na-Nana-Na (Feat. Jazze Pha)
TTITLE11=Over And Over Again
TTITLE12=O (Clean Radio)
TTITLE13=Vibrate
TTITLE14=This is how we do (DJ IHAN REMIX)
EXTD=
EXTT0=
EXTT1=
EXTT2=
EXTT3=
EXTT4=
EXTT5=
EXTT6=
EXTT7=
EXTT8=
EXTT9=
EXTT10=
EXTT11=
EXTT12=
EXTT13=
EXTT14=
PLAYORDER=
